<?xml version="1.0" encoding="UTF-8"?>
<svg version="1.1" xmlns="http://www.w3.org/2000/svg" width="393" height="393">
<path d="M0 0 C0.77182617 0.17160645 1.54365234 0.34321289 2.33886719 0.52001953 C20.5104695 4.65127166 37.59977327 11.19903489 54 20 C55.73636719 20.90492187 55.73636719 20.90492187 57.5078125 21.828125 C71.74475008 29.54655585 84.32836552 39.83253979 96 51 C99.17438293 49.59832763 101.29398359 47.94624673 103.72705078 45.48413086 C104.44104034 44.76676254 105.15502991 44.04939423 105.89065552 43.31028748 C106.65119232 42.53629105 107.41172913 41.76229462 108.1953125 40.96484375 C108.98396698 40.1709877 109.77262146 39.37713165 110.58517456 38.55921936 C113.10323945 36.0233426 115.61451787 33.48088208 118.125 30.9375 C120.64348364 28.39142771 123.16339659 25.84681279 125.68624878 23.30506897 C127.25600012 21.72303024 128.82307105 20.13832669 130.38723755 18.55076599 C131.09492279 17.83654984 131.80260803 17.12233368 132.53173828 16.38647461 C133.15476837 15.7551915 133.77779846 15.12390839 134.41970825 14.47349548 C137.60395542 11.50444004 140.56236666 11.67340875 144.73828125 11.70703125 C148.0542278 12.13655801 149.74987627 13.60924354 152 16 C153.23466651 18.46933302 153.13677014 20.11367223 153.15390015 22.87641907 C153.16250061 23.90688354 153.17110107 24.93734802 153.17996216 25.9990387 C153.18635208 27.70168129 153.18635208 27.70168129 153.19287109 29.4387207 C153.20104858 30.63067047 153.20922607 31.82262024 153.21765137 33.0506897 C153.24253616 37.0090399 153.25917879 40.96738265 153.2734375 44.92578125 C153.27879723 46.28833714 153.28417474 47.65089296 153.28956985 49.01344872 C153.31119835 54.68123235 153.32993512 60.34901313 153.34119225 66.01682758 C153.35743223 74.1400623 153.39061067 82.26281874 153.44759309 90.38587314 C153.48629176 96.09719708 153.50582479 101.8083931 153.51111281 107.51984471 C153.51476647 110.93124106 153.52678763 114.3421273 153.55921555 117.75338173 C153.59071601 121.56032588 153.59092578 125.36605628 153.58349609 129.1730957 C153.59990143 130.30211807 153.61630676 131.43114044 153.63320923 132.59437561 C153.57210171 140.22630511 153.57210171 140.22630511 150.65103149 144.17668152 C147.04955074 146.65369713 144.46398506 147.1256861 140.19987488 147.14044189 C139.21155167 147.14615204 138.22322845 147.15186218 137.20495605 147.15774536 C135.58019348 147.15942215 135.58019348 147.15942215 133.92260742 147.16113281 C132.78088577 147.16609772 131.63916412 147.17106262 130.46284485 147.17617798 C126.67704674 147.19081089 122.89129052 147.19760347 119.10546875 147.203125 C116.47854104 147.20887547 113.85161335 147.21463321 111.22468567 147.22039795 C106.4173773 147.22996859 101.61007798 147.23586583 96.80276126 147.2388947 C89.73303381 147.24337377 82.66349986 147.26091571 75.59383124 147.2898953 C69.46585102 147.31414055 63.33795053 147.32184019 57.2099247 147.32357025 C54.6052069 147.32659909 52.00048997 147.33463535 49.39580345 147.34775543 C45.75224502 147.36479839 42.10915823 147.36293963 38.46557617 147.35644531 C37.38847382 147.3656601 36.31137146 147.37487488 35.20162964 147.3843689 C29.74125414 147.35386108 25.66187815 147.19069483 21 144 C18.27160695 140.2154548 17.42480473 136.98755297 18.11569214 132.33544922 C20.17012865 126.9097006 25.05975388 123.10572172 29.16015625 119.15625 C30.19158266 118.13789406 31.22146349 117.11797055 32.24986267 116.09655762 C34.94887719 113.4241545 37.66824537 110.77344919 40.39251709 108.12683105 C43.17346102 105.41774588 45.93447172 102.68850834 48.69726562 99.9609375 C54.11228384 94.62078843 59.54897995 89.30342123 65 84 C37.20876733 56.17740025 0.37855213 41.04852017 -39 40.625 C-75.67459034 41.01943879 -109.24781466 54.25414517 -137 78 C-138.20849609 79.02287109 -138.20849609 79.02287109 -139.44140625 80.06640625 C-144.42626414 84.37649489 -148.88261476 88.85535637 -153 94 C-153.81082031 95.0003125 -154.62164062 96.000625 -155.45703125 97.03125 C-171.84017574 117.90827849 -182.24623927 142.78373509 -186 169 C-186.19529297 170.23943359 -186.19529297 170.23943359 -186.39453125 171.50390625 C-191.27241281 208.90099824 -179.50420356 247.46756887 -157.078125 277.3984375 C-152.10760537 283.62093012 -146.70239478 289.44382047 -141 295 C-140.47664063 295.56847656 -139.95328125 296.13695312 -139.4140625 296.72265625 C-115.51548388 322.08338419 -78.13126409 335.67988215 -43.96875 337.28125 C-11.54748314 338.19748245 22.01666165 328.73262959 48 309 C49.26070313 308.05060547 49.26070313 308.05060547 50.546875 307.08203125 C60.86645377 299.05391174 70.11393723 290.45328824 78 280 C78.71671875 279.06027344 79.4334375 278.12054688 80.171875 277.15234375 C95.05733621 256.69803091 102.9771171 234.8165346 107.8215332 210.21240234 C109.59392815 201.55282491 111.5228502 196.23400486 119 191 C122.59014696 188.73382126 125.67492109 188.70104864 129.875 188.6875 C131.06867188 188.67074219 132.26234375 188.65398437 133.4921875 188.63671875 C139.26997231 189.23508622 143.0297351 191.48918313 146.75 195.875 C147.32234375 196.53242188 147.8946875 197.18984375 148.484375 197.8671875 C153.23699903 204.55515843 152.63504615 212.10083931 151.62011719 219.93066406 C151.10684829 222.84782533 150.51499902 225.73304628 149.875 228.625 C149.6490918 229.66624023 149.42318359 230.70748047 149.19042969 231.78027344 C137.51525585 283.79948161 104.7650804 326.34450237 60.16357422 354.65576172 C45.03164784 364.05729485 28.63846614 370.74204059 11.4375 375.3125 C10.57769531 375.54275879 9.71789062 375.77301758 8.83203125 376.01025391 C-6.84269653 379.94916503 -22.31013303 381.53338386 -38.4375 381.375 C-39.28884521 381.37034729 -40.14019043 381.36569458 -41.01733398 381.36090088 C-53.56619741 381.28065541 -65.72969789 380.82981904 -78 378 C-79.31000977 377.71793701 -79.31000977 377.71793701 -80.64648438 377.43017578 C-131.33607726 366.34513433 -174.03532499 335.2760571 -202.27050781 292.05517578 C-219.49964529 265.04429166 -231.00800241 231.85511493 -231.203125 199.609375 C-231.21013931 198.83106827 -231.21715363 198.05276154 -231.22438049 197.25086975 C-231.24180014 194.75052039 -231.24823344 192.25040782 -231.25 189.75 C-231.25067474 188.89618744 -231.25134949 188.04237488 -231.25204468 187.16268921 C-231.23618497 174.54680716 -230.85036308 162.34137691 -228 150 C-227.82839355 149.22817383 -227.65678711 148.45634766 -227.47998047 147.66113281 C-220.84827982 118.4911323 -208.06659602 89.45887704 -188 67 C-187.21367187 66.11699219 -186.42734375 65.23398438 -185.6171875 64.32421875 C-184.08127759 62.613428 -182.53867905 60.9086097 -180.98828125 59.2109375 C-179.4039618 57.44919917 -177.90609002 55.66911213 -176.4375 53.8125 C-173.25619031 50.14175805 -169.71039348 47.12291452 -166 44 C-165.1234375 43.23558594 -164.246875 42.47117188 -163.34375 41.68359375 C-138.84629856 20.64344392 -109.42087903 6.98606183 -78 0 C-77.28489258 -0.16516113 -76.56978516 -0.33032227 -75.83300781 -0.50048828 C-52.21309171 -5.71758716 -23.54168015 -5.4371839 0 0 Z " fill="#000000" transform="translate(236,8)"/>
<path d="M0 0 C4.14327184 2.25631664 6.69711307 5.08172615 8.8125 9.3125 C8.90534346 11.78439082 8.93833159 14.22781511 8.92602539 16.69970703 C8.92617142 17.46077759 8.92631744 18.22184814 8.9264679 19.00598145 C8.92576993 21.52745389 8.91798294 24.04885292 8.91015625 26.5703125 C8.90829166 28.31623291 8.90686795 30.06215384 8.90586853 31.80807495 C8.90204659 36.40795328 8.89221905 41.00780014 8.88116455 45.60766602 C8.87094349 50.2996376 8.86636942 54.99161425 8.86132812 59.68359375 C8.85059651 68.89324301 8.83352394 78.10286889 8.8125 87.3125 C9.97999031 87.77004417 9.97999031 87.77004417 11.17106628 88.23683167 C13.74647094 89.28561105 16.0294302 90.49619572 18.42578125 91.90234375 C19.78062622 92.69439209 19.78062622 92.69439209 21.1628418 93.50244141 C22.62911011 94.36748291 22.62911011 94.36748291 24.125 95.25 C25.15085205 95.85247559 26.1767041 96.45495117 27.23364258 97.07568359 C29.50488876 98.41135551 31.77512644 99.74860099 34.04394531 101.08837891 C36.69000845 102.65089383 39.33801181 104.21005731 41.98730469 105.76708984 C45.61198417 107.89762235 49.23395029 110.03270142 52.85409546 112.17092896 C54.27773618 113.01120031 55.70206709 113.85030348 57.12710571 114.6882019 C59.14299752 115.87427599 61.15581925 117.06540353 63.16796875 118.2578125 C63.76600311 118.60837204 64.36403748 118.95893158 64.98019409 119.32011414 C70.36492579 122.52412041 75.11821864 125.49943635 77.8125 131.3125 C78.63368478 136.80925939 78.53780457 141.75030554 76.1875 146.8125 C71.60731258 151.63374992 67.74830362 153.6781684 61.25390625 154.52734375 C54.38942896 153.92326975 47.96087911 149.25175216 42.125 145.875 C41.20364258 145.34495361 40.28228516 144.81490723 39.33300781 144.26879883 C30.69219298 139.27945841 22.137225 134.15220732 13.59912109 128.98974609 C10.46458019 127.1030897 7.32078439 125.23244298 4.17578125 123.36328125 C2.48243652 122.35454956 2.48243652 122.35454956 0.75488281 121.32543945 C-1.45377599 120.01003987 -3.66399897 118.69726218 -5.87597656 117.38745117 C-6.88499023 116.78521729 -7.89400391 116.1829834 -8.93359375 115.5625 C-9.82747803 115.03140625 -10.7213623 114.5003125 -11.64233398 113.953125 C-17.65674063 110.07621252 -21.38302487 106.45436363 -23.78581238 99.60760498 C-24.39701815 96.11538531 -24.35227399 92.62525234 -24.36450195 89.09082031 C-24.37107315 88.26427948 -24.37764435 87.43773865 -24.38441467 86.58615112 C-24.40410397 83.85430809 -24.41580066 81.12251993 -24.42578125 78.390625 C-24.42985678 77.45547813 -24.4339323 76.52033127 -24.43813133 75.55684662 C-24.45897366 70.60691042 -24.47328321 65.6570018 -24.48266602 60.70703125 C-24.49372533 55.60493225 -24.52812506 50.50326997 -24.56783772 45.40132523 C-24.59403128 41.46868093 -24.6023603 37.53614029 -24.60594749 33.60341644 C-24.61080651 31.72322389 -24.62240091 29.84303575 -24.64098549 27.96292877 C-24.66543507 25.32552338 -24.66440147 22.68924275 -24.6574707 20.05175781 C-24.67028076 19.28264069 -24.68309082 18.51352356 -24.69628906 17.72109985 C-24.64388646 12.22084031 -23.32971559 7.87509254 -20.1875 3.3125 C-13.86626389 -1.71868793 -7.56870114 -3.50193635 0 0 Z " fill="#000000" transform="translate(199.1875,112.6875)"/>
</svg>
