<?xml version="1.0" encoding="UTF-8"?>
<svg version="1.1" xmlns="http://www.w3.org/2000/svg" width="500" height="500">
<path d="M0 0 C2.60661612 -0.00570974 5.21322975 -0.01267633 7.81983948 -0.02079773 C14.13730382 -0.0379015 20.45466833 -0.03884338 26.77214979 -0.03358483 C31.91232541 -0.02952612 37.05247177 -0.03100675 42.19264603 -0.03633308 C42.92715105 -0.03708151 43.66165608 -0.03782993 44.41841883 -0.03860103 C45.91106466 -0.04013267 47.40371048 -0.04167102 48.8963563 -0.043216 C62.86082618 -0.05691054 76.82523988 -0.05152482 90.78970845 -0.04003078 C103.53328868 -0.03010141 116.27672365 -0.04303937 129.02028148 -0.06696498 C142.14252102 -0.09141373 155.26469307 -0.10094971 168.3869549 -0.09431225 C175.73924843 -0.09083285 183.09143035 -0.09296698 190.44370651 -0.11056328 C197.35989504 -0.12691227 204.27580302 -0.1220142 211.19198418 -0.10325813 C213.72021496 -0.09958786 216.24846648 -0.10263474 218.77667809 -0.11314392 C241.51660272 -0.20040246 261.81780212 2.00420392 279.15478516 18.40405273 C296.83549901 37.09509309 297.76867288 58.97867879 297.67768383 83.30491185 C297.6685379 86.93008539 297.68264975 90.55518531 297.69360352 94.18034363 C297.71129274 101.26090767 297.70759192 108.34130111 297.69595295 115.42187154 C297.68688082 121.18175925 297.68571088 126.94159949 297.69004822 132.70149231 C297.69066115 133.52453792 297.69127408 134.34758352 297.69190559 135.1955699 C297.69318462 136.86811667 297.69448148 138.54066343 297.69579595 140.21321017 C297.70717363 155.85827718 297.69413236 171.50325009 297.67259449 187.14830166 C297.65472606 200.54203008 297.65783096 213.93561978 297.67626953 227.3293457 C297.69772612 242.92242318 297.70607526 258.51541841 297.69382048 274.10850859 C297.69254642 275.77454343 297.69128893 277.44057829 297.69004822 279.10661316 C297.68912256 280.33585982 297.68912256 280.33585982 297.68817821 281.58993974 C297.68473964 287.33592512 297.69052125 293.08185786 297.69996643 298.82783508 C297.71124121 305.84029289 297.70803222 312.85257184 297.68684345 319.86500943 C297.67640607 323.4357226 297.67208429 327.00613871 297.68544006 330.57684898 C297.76857986 354.85280271 296.04347375 376.10381456 278.15478516 394.40405273 C264.36021686 406.52141259 248.58882093 412.41980573 230.15478516 411.40405273 C230.18958984 412.11948242 230.22439453 412.83491211 230.26025391 413.57202148 C230.72705883 430.7548885 224.95096742 445.86015162 213.66650391 458.86889648 C198.13140135 474.54896111 180.43256048 478.66958362 159.11412406 478.81433213 C155.51254382 478.82203319 151.91114946 478.81524284 148.30957031 478.80810547 C145.70295419 478.81381521 143.09634056 478.8207818 140.48973083 478.8289032 C134.1722665 478.84600697 127.85490198 478.84694885 121.53742053 478.84169029 C116.3972449 478.83763159 111.25709854 478.83911222 106.11692429 478.84443855 C105.01516675 478.84556119 105.01516675 478.84556119 103.89115148 478.8467065 C102.39850565 478.84823814 100.90585983 478.84977649 99.41321401 478.85132147 C85.44874413 478.86501601 71.48433043 478.85963029 57.51986186 478.84813625 C44.77628163 478.83820688 32.03284667 478.85114484 19.28928883 478.87507045 C6.16704929 478.89951919 -6.95512275 478.90905518 -20.07738459 478.90241772 C-27.42967812 478.89893832 -34.78186004 478.90107245 -42.1341362 478.91866875 C-49.05032472 478.93501774 -55.96623271 478.93011967 -62.88241386 478.9113636 C-65.41064465 478.90769333 -67.93889616 478.91074021 -70.46710777 478.92124939 C-92.94411896 479.00749907 -113.88194852 476.97799819 -130.84521484 460.40405273 C-147.94052134 440.6324842 -149.46211889 420.63585035 -149.36811352 395.50319362 C-149.35896759 391.87802008 -149.37307944 388.25292016 -149.3840332 384.62776184 C-149.40172243 377.5471978 -149.39802161 370.46680436 -149.38638264 363.38623393 C-149.3773105 357.62634622 -149.37614056 351.86650598 -149.38047791 346.10661316 C-149.38109084 345.28356755 -149.38170377 344.46052195 -149.38233528 343.61253557 C-149.38361431 341.9399888 -149.38491117 340.26744204 -149.38622564 338.5948953 C-149.39760332 322.94982829 -149.38456205 307.30485538 -149.36302418 291.65980381 C-149.34515575 278.26607539 -149.34826065 264.87248569 -149.36669922 251.47875977 C-149.38815581 235.88568229 -149.39650495 220.29268706 -149.38425016 204.69959688 C-149.38297611 203.03356204 -149.38171862 201.36752718 -149.38047791 199.70149231 C-149.3798608 198.88199454 -149.3792437 198.06249676 -149.3786079 197.21816573 C-149.37516933 191.47218035 -149.38095094 185.72624761 -149.39039612 179.98027039 C-149.4016709 172.96781258 -149.3984619 165.95553363 -149.37727314 158.94309604 C-149.36683576 155.37238287 -149.36251398 151.80196675 -149.37586975 148.23125648 C-149.45900955 123.95530276 -147.73390344 102.70429091 -129.84521484 84.40405273 C-115.91777874 72.16997977 -100.3798417 66.50236818 -81.84521484 67.40405273 C-81.89162109 66.79561523 -81.93802734 66.18717773 -81.98583984 65.56030273 C-82.68098245 48.67826812 -76.32576561 32.72267133 -65.39208984 20.00952148 C-46.72666332 0.91467564 -25.0949024 -0.04973145 0 0 Z M-44.89599609 42.83764648 C-51.36570621 51.63805963 -52.14168652 58.77258825 -52.10591125 69.46054077 C-52.1097368 70.6729867 -52.11356235 71.88543264 -52.11750382 73.13461936 C-52.12602083 76.48777123 -52.12560639 79.84070317 -52.12132323 83.19384861 C-52.11885291 86.81493845 -52.12787397 90.4360027 -52.13536072 94.05708313 C-52.14810132 101.14651298 -52.1499022 108.23590494 -52.14756045 115.32534431 C-52.14577639 121.08883475 -52.14752883 126.8523137 -52.1517849 132.61580276 C-52.15238009 133.43653812 -52.15297527 134.25727347 -52.1535885 135.10287959 C-52.15480027 136.77028627 -52.1560144 138.43769295 -52.15723088 140.10509963 C-52.16810399 155.73748583 -52.16594503 171.36985046 -52.15984603 187.00223787 C-52.15467729 201.29646323 -52.1659316 215.59062043 -52.18494425 229.88483231 C-52.20432634 244.56961497 -52.21257798 259.2543654 -52.208821 273.93916094 C-52.20690949 282.18054677 -52.20939159 290.42187459 -52.22353554 298.66324997 C-52.23545505 305.67938435 -52.23684786 312.69542503 -52.22474537 319.71156071 C-52.21886062 323.28940604 -52.21774593 326.86708 -52.22974777 330.44491386 C-52.24262157 334.32789306 -52.23213242 338.21061325 -52.21943665 342.09359741 C-52.22681093 343.21821864 -52.23418522 344.34283988 -52.24178296 345.50154054 C-52.16240695 357.04655363 -49.05720716 364.66271772 -41.28662109 373.09545898 C-33.59311009 380.45687599 -23.78719328 382.00455303 -13.52255249 381.90525818 C-12.43736253 381.91079258 -11.35217258 381.91632697 -10.23409808 381.92202908 C-6.6268554 381.93555531 -3.02031428 381.92070953 0.58691406 381.90576172 C3.18474113 381.90954775 5.78256618 381.91505012 8.38038635 381.9221344 C14.6859292 381.93601736 20.99127083 381.92854795 27.29680397 381.91345882 C34.64811398 381.89654103 41.99937468 381.89981615 49.35069816 381.9035529 C62.47065569 381.9094222 75.59051703 381.89529539 88.71044922 381.87060547 C101.42695722 381.84667762 114.1433368 381.83960621 126.85986328 381.85009766 C140.72713861 381.86151809 154.59435465 381.86342379 168.46162927 381.84899956 C169.94141348 381.84747381 171.42119769 381.84595345 172.9009819 381.84443855 C173.62895985 381.84368074 174.3569378 381.84292292 175.10697568 381.84214215 C180.22549711 381.83740878 185.34399196 381.83924395 190.46251297 381.84350395 C197.35563322 381.84895726 204.24857298 381.83814581 211.14166069 381.8165493 C213.66959853 381.81099027 216.19755346 381.810508 218.72549248 381.81550217 C222.17922123 381.82146914 225.63240993 381.808922 229.08609009 381.79173279 C230.5821637 381.80074786 230.5821637 381.80074786 232.10846102 381.80994505 C242.76384713 381.71368364 250.37302159 378.70220388 258.15478516 371.40405273 C266.4749039 362.66702172 267.60579975 352.71070734 267.53573608 341.06272888 C267.54041606 339.85588678 267.54509603 338.64904468 267.54991782 337.4056316 C267.55976195 334.08195442 267.55628932 330.75879114 267.54695916 327.43514597 C267.54014069 323.8406883 267.55066365 320.24627388 267.55889893 316.65182495 C267.57220833 309.62093828 267.56937114 302.59014793 267.560661 295.55925756 C267.55387438 289.84350869 267.55297196 284.12778673 267.55623245 278.41203499 C267.55669215 277.59725683 267.55715185 276.78247867 267.55762548 275.94301026 C267.55858469 274.28760217 267.55955733 272.6321941 267.56054325 270.97678602 C267.56908883 255.47027244 267.55927582 239.96381214 267.54314215 224.45730729 C267.5297372 211.16194121 267.53207014 197.86665372 267.54589844 184.57128906 C267.56196462 169.11713543 267.56826758 153.66302843 267.55906165 138.20886761 C267.55810604 136.55999665 267.55716292 134.91112569 267.55623245 133.26225471 C267.55553821 132.04546035 267.55553821 132.04546035 267.55482995 130.80408428 C267.55224336 125.09696739 267.55660384 119.38988017 267.56367111 113.68276787 C267.57209774 106.7252558 267.56978146 99.76784523 267.55382888 92.81034475 C267.54596216 89.2628617 267.54282714 85.7155477 267.55277634 82.16806602 C267.56341041 78.31808008 267.5506851 74.46836898 267.53573608 70.61839294 C267.54242825 69.50359997 267.54912041 68.38880699 267.55601537 67.24023241 C267.47759583 56.82183123 264.90294381 48.46067789 258.15478516 40.40405273 C249.54610235 32.03855305 240.81656493 29.94441084 229.07263184 30.02310181 C227.98915073 30.01842183 226.90566962 30.01374186 225.78935575 30.00892007 C222.17601324 29.9969995 218.56305205 30.0064161 214.94970703 30.01586914 C212.35217569 30.01180215 209.75464609 30.00645956 207.15711975 29.99993896 C200.84465439 29.98662936 194.53229631 29.98946695 188.21982682 29.99817689 C183.08757724 30.00496398 177.95535764 30.00586573 172.82310486 30.00260544 C172.09145205 30.00214574 171.35979923 30.00168604 170.60597512 30.00121241 C169.1194355 30.00025319 167.63289589 29.99928055 166.14635628 29.99829464 C152.22122197 29.98974887 138.29614699 29.99956209 124.3710224 30.01569574 C112.433842 30.02909819 100.49674913 30.02676986 88.55957031 30.01293945 C74.6827928 29.99686925 60.80606723 29.99057276 46.92928171 29.99977624 C45.44834297 30.00073185 43.96740421 30.00167496 42.48646545 30.00260544 C41.75789753 30.00306826 41.02932961 30.00353109 40.27868387 30.00400794 C35.15517247 30.00659351 30.03169414 30.00223619 24.90818787 29.99516678 C18.00689604 29.98585331 11.10577198 29.99252522 4.20449638 30.00984955 C1.67333182 30.01381263 -0.85784666 30.01268343 -3.38900566 30.00606155 C-6.84721121 29.99784926 -10.30488945 30.00816463 -13.76306152 30.02310181 C-14.76180817 30.01640964 -15.76055482 30.00971748 -16.78956652 30.00282252 C-28.45639286 30.10039113 -37.29349078 33.81600685 -44.89599609 42.83764648 Z M-110.64208984 107.89624023 C-116.46232599 114.52140266 -118.96439742 121.86446376 -118.97664261 130.6012764 C-118.98048375 131.63328305 -118.9843249 132.66528969 -118.98828244 133.72856927 C-118.98741596 134.85569573 -118.98654948 135.98282219 -118.98565674 137.144104 C-118.98862786 138.34667398 -118.99159898 139.54924396 -118.99466014 140.78825545 C-119.00183274 144.12306327 -119.00451886 147.45781956 -119.00525761 150.79263139 C-119.00711081 154.39057379 -119.01465946 157.98850508 -119.02139282 161.58644104 C-119.03496557 169.45219934 -119.04099914 177.31795253 -119.04540348 185.18372059 C-119.04816755 190.09637624 -119.05240519 195.00902994 -119.05690765 199.92168427 C-119.06909866 213.5271454 -119.07939849 227.13260496 -119.08278275 240.73807144 C-119.08300231 241.6085771 -119.08322188 242.47908275 -119.0834481 243.37596737 C-119.08366637 244.24853739 -119.08388465 245.12110741 -119.08410954 246.02011895 C-119.08455301 247.7882336 -119.08499957 249.55634825 -119.08544922 251.32446289 C-119.08567065 252.20150595 -119.08589208 253.078549 -119.08612022 253.98216912 C-119.09006799 268.19245327 -119.10752215 282.40268613 -119.13080874 296.61295047 C-119.15453139 311.20726442 -119.166985 325.80155264 -119.16815066 340.39588618 C-119.16906688 348.58812298 -119.1748058 356.78029293 -119.19297028 364.97251129 C-119.20838355 371.94843034 -119.21348448 378.92426189 -119.20523217 385.90019473 C-119.20133007 389.45777852 -119.20223359 393.01518616 -119.21628952 396.57274818 C-119.23140523 400.43393007 -119.22314891 404.29486515 -119.21270752 408.15606689 C-119.22076392 409.27427047 -119.22882033 410.39247405 -119.23712087 411.54456258 C-119.171177 421.97612518 -116.60191523 430.33722962 -109.84521484 438.40405273 C-101.24221972 446.76402539 -92.51302169 448.86245482 -80.77651978 448.79173279 C-79.15341481 448.79981109 -79.15341481 448.79981109 -77.49751985 448.8080526 C-73.88885428 448.82230581 -70.28055688 448.81523474 -66.671875 448.80810547 C-64.07758795 448.8138104 -61.48330341 448.82077514 -58.88902283 448.8289032 C-52.58391435 448.84605905 -46.27890568 448.84693788 -39.97377993 448.84169029 C-34.84631356 448.83764118 -29.71887657 448.83910094 -24.59141159 448.84443855 C-23.49479854 448.84556119 -23.49479854 448.84556119 -22.37603169 448.8467065 C-20.89062353 448.84823805 -19.40521538 448.8497764 -17.91980724 448.85132147 C-4.00415401 448.865035 9.91144293 448.859617 23.82709487 448.84813625 C36.54203828 448.83820614 49.25683613 448.8511427 61.9717571 448.87507045 C75.04522373 448.89948648 88.11862264 448.9090631 101.19211161 448.90241772 C108.52475825 448.89893092 115.857293 448.90112178 123.18992233 448.91866875 C130.08633092 448.9349679 136.98245759 448.93017015 143.87885857 448.9113636 C146.40596018 448.90768065 148.93308242 448.91077754 151.46016502 448.92124939 C154.91780267 448.93448043 158.37452399 448.9228917 161.8321228 448.90525818 C162.82504377 448.91486319 163.81796473 448.92446819 164.84097421 448.93436426 C175.6983691 448.82093885 184.17158125 445.43281007 191.98681641 437.91577148 C197.45583416 431.57959416 200.32694404 424.4881281 200.21728516 416.15405273 C200.20375 414.81600586 200.20375 414.81600586 200.18994141 413.45092773 C200.17833984 412.77545898 200.16673828 412.09999023 200.15478516 411.40405273 C198.42702756 411.4004702 198.42702756 411.4004702 196.66436577 411.3968153 C169.27502354 411.33936063 141.88575732 411.26656311 114.49650668 411.17506645 C111.1197418 411.16379932 107.74297651 411.1526607 104.36621094 411.14160156 C103.69400435 411.13939788 103.02179775 411.1371942 102.32922126 411.13492373 C91.46846017 411.09962501 80.60769915 411.07471907 69.74690209 411.05370571 C58.58904978 411.03188432 47.43126405 410.99855454 36.27347195 410.95535117 C30.0120638 410.93146702 23.75073714 410.91270671 17.48928452 410.90643883 C11.5877674 410.90036628 5.6864587 410.88028804 -0.21498108 410.84977722 C-2.37313766 410.84103173 -4.53132152 410.83726712 -6.68949509 410.83904457 C-28.21607684 410.85116869 -47.73449868 408.35148462 -63.84521484 392.40405273 C-80.30124193 373.57456021 -81.29475303 353.9978458 -81.27758789 330.13110352 C-81.28661598 327.58719408 -81.29694575 325.04328899 -81.30847168 322.49938965 C-81.33027153 317.04733452 -81.34312217 311.59537856 -81.34760094 306.14328384 C-81.35409208 298.26074921 -81.37708106 290.37832859 -81.40394423 282.49584018 C-81.44709919 269.70337896 -81.4771302 256.91092258 -81.4987793 244.1184082 C-81.51982298 231.70041532 -81.54712748 219.2824619 -81.58276367 206.86450195 C-81.5849625 206.09753522 -81.58716132 205.33056849 -81.58942678 204.54036035 C-81.60049727 200.69225855 -81.61168992 196.84415711 -81.62294328 192.99605584 C-81.71596832 161.13208736 -81.78741939 129.26810521 -81.84521484 97.40405273 C-83.57289466 97.36486902 -85.30083733 97.3371915 -87.02880859 97.31420898 C-88.47211548 97.28919312 -88.47211548 97.28919312 -89.94458008 97.26367188 C-98.43403977 97.67453286 -104.65381038 102.19042678 -110.64208984 107.89624023 Z " fill="#000000" transform="translate(175.84521484375,10.595947265625)"/>
<path d="M0 0 C0.84246277 -0.0071553 1.68492554 -0.01431061 2.55291748 -0.02168274 C3.94227257 -0.02571609 3.94227257 -0.02571609 5.35969543 -0.02983093 C6.33385406 -0.03640213 7.3080127 -0.04297333 8.31169128 -0.04974365 C11.54619926 -0.06950685 14.7806607 -0.08114698 18.01521301 -0.09111023 C19.6707894 -0.09722352 19.6707894 -0.09722352 21.35981178 -0.10346031 C27.20335835 -0.12433553 33.04688134 -0.13863007 38.89045715 -0.147995 C44.92535628 -0.15905275 50.95988602 -0.19344154 56.99465466 -0.23316669 C61.63497602 -0.25932202 66.27520932 -0.26768597 70.91559792 -0.27127647 C73.139916 -0.27614647 75.36423005 -0.28777214 77.58847618 -0.30631447 C80.7052209 -0.33067852 83.8210095 -0.32974537 86.93782043 -0.32279968 C87.853936 -0.33560974 88.77005157 -0.3484198 89.71392822 -0.36161804 C95.64515284 -0.31353589 99.10517783 0.70419747 103.97224426 4.14717102 C107.00466434 7.88715578 107.8100675 11.36295657 107.97224426 16.14717102 C106.75978526 22.32718048 104.13446482 25.6705735 98.97224426 29.14717102 C96.22704466 30.02655963 93.73545801 30.27683396 90.86256409 30.29434204 C90.05245377 30.30149734 89.24234344 30.30865265 88.40768433 30.31602478 C87.52761215 30.31871368 86.64753998 30.32140259 85.74079895 30.32417297 C84.80696884 30.33074417 83.87313873 30.33731537 82.91101074 30.34408569 C79.82204606 30.36378857 76.73312994 30.37547451 73.64411926 30.38545227 C72.58761421 30.3895278 71.53110916 30.39360332 70.44258881 30.39780235 C64.85075069 30.41865007 59.25893703 30.43295753 53.66706848 30.44233704 C47.89911661 30.45339978 42.13155069 30.48780216 36.3637352 30.52750874 C31.92153722 30.55368373 27.4794311 30.56202967 23.03716278 30.56561852 C20.91135806 30.57048201 18.78555738 30.58208917 16.65982819 30.60065651 C13.67999879 30.62506668 10.70116697 30.62407933 7.7212677 30.61714172 C6.41330482 30.63635681 6.41330482 30.63635681 5.07891846 30.65596008 C-0.74676746 30.60671123 -5.16183114 29.43205089 -10.02775574 26.14717102 C-13.40909216 22.59676778 -14.2877528 19.86305021 -14.46525574 15.08467102 C-14.28097637 10.98752642 -13.75653019 8.34642383 -11.02775574 5.14717102 C-7.29588339 1.87040505 -4.95847414 0.02887412 0 0 Z " fill="#000000" transform="translate(297.0277557373047,150.8528289794922)"/>
<path d="M0 0 C0.79328201 -0.00571014 1.58656403 -0.01142029 2.40388489 -0.01730347 C3.69594093 -0.01898026 3.69594093 -0.01898026 5.01409912 -0.02069092 C5.92842209 -0.02565582 6.84274506 -0.03062073 7.78477478 -0.03573608 C10.80881505 -0.0503374 13.83280283 -0.05715672 16.85687256 -0.06268311 C18.96191407 -0.0684367 21.06695558 -0.07419441 23.17199707 -0.07995605 C27.58697758 -0.09046059 32.00193991 -0.09630669 36.41693115 -0.09979248 C42.06374638 -0.10527276 47.71031995 -0.12929326 53.35705948 -0.15776443 C57.70661105 -0.17642409 62.05610484 -0.18159822 66.40569305 -0.18312836 C68.48682729 -0.18614843 70.56796066 -0.1941551 72.64905548 -0.20731354 C75.56649445 -0.2244417 78.48334849 -0.22247708 81.40081787 -0.21600342 C82.68072853 -0.22982559 82.68072853 -0.22982559 83.98649597 -0.243927 C90.51743588 -0.19872 96.36152474 0.74135509 101.34124756 5.32794189 C104.17553822 10.23344496 105.26457358 14.18474907 104.40374756 19.82794189 C102.20856519 24.88640561 99.03212962 28.02033724 93.96624756 30.14044189 C91.916255 30.3977108 91.916255 30.3977108 89.69798279 30.40786743 C88.43016464 30.42066238 88.43016464 30.42066238 87.13673401 30.43371582 C86.21768784 30.43280945 85.29864166 30.43190308 84.35174561 30.43096924 C83.37729492 30.43768646 82.40284424 30.44440369 81.39886475 30.45132446 C78.17518015 30.47033306 74.95170347 30.47423025 71.72796631 30.47637939 C69.48600682 30.48280578 67.24404817 30.48953402 65.00209045 30.49655151 C60.30042578 30.50853177 55.59883462 30.51223161 50.89715576 30.51104736 C44.87797998 30.51084424 38.85927668 30.53813672 32.84021282 30.57259178 C28.2084589 30.5948512 23.5768188 30.59888518 18.94501686 30.59782791 C16.72628973 30.60018568 14.50755954 30.60901904 12.28888512 30.62449265 C9.18190004 30.64413076 6.07593529 30.6383224 2.96893311 30.62628174 C1.59947289 30.64314026 1.59947289 30.64314026 0.2023468 30.66033936 C-5.72157897 30.60212531 -9.16051965 29.55397094 -14.03375244 26.14044189 C-17.68383712 22.25486789 -17.53617724 17.8956293 -17.38531494 12.80059814 C-16.88624417 9.024296 -15.60349373 6.91854058 -13.03375244 4.14044189 C-8.850839 1.10782965 -5.11279323 0.02215465 0 0 Z " fill="#000000" transform="translate(300.03375244140625,251.85955810546875)"/>
<path d="M0 0 C3.98561154 2.62688033 6.23980531 5.28191592 7.75 9.8125 C8.27165876 16.07240514 7.3735165 19.58708225 3.75 24.8125 C0.97985426 27.99686991 -1.99572034 30.95533419 -4.99609375 33.921875 C-5.84422134 34.7705011 -6.69234894 35.6191272 -7.56617737 36.49346924 C-9.35375453 38.27871389 -11.1450062 40.06028595 -12.93969727 41.83837891 C-15.68357016 44.55860403 -18.41382539 47.29196008 -21.14257812 50.02734375 C-22.88462514 51.76381527 -24.62743791 53.49951897 -26.37109375 55.234375 C-27.1858165 56.05000916 -28.00053925 56.86564331 -28.83995056 57.70599365 C-29.60747147 58.46398254 -30.37499237 59.22197144 -31.16577148 60.00292969 C-31.83543442 60.66798523 -32.50509735 61.33304077 -33.1950531 62.01824951 C-37.73411063 65.98146929 -42.15413413 67.99458338 -48.25 67.8125 C-54.39006698 66.41490788 -58.49517239 63.34257513 -62.8671875 58.96484375 C-63.45041779 58.39351212 -64.03364807 57.82218048 -64.634552 57.23353577 C-65.85582 56.02871434 -67.07067588 54.81736143 -68.27929688 53.59985352 C-70.11912406 51.75588916 -71.99089467 49.94933313 -73.8671875 48.14257812 C-84.56590836 37.6100718 -84.56590836 37.6100718 -85.37768555 29.93725586 C-85.05955354 24.64336901 -83.53696249 21.06728843 -79.75 17.375 C-76.45115755 15.31322347 -73.76634736 14.62564439 -69.9375 14.5 C-69.19886719 14.46261719 -68.46023437 14.42523438 -67.69921875 14.38671875 C-61.49051217 15.46606327 -57.08763716 20.71464238 -52.875 25.0625 C-52.32972656 25.61679687 -51.78445312 26.17109375 -51.22265625 26.7421875 C-49.89377023 28.09438731 -48.57121452 29.4528035 -47.25 30.8125 C-42.83291285 27.20303779 -38.74200673 23.368907 -34.74609375 19.30078125 C-34.25613922 18.80295135 -33.76618469 18.30512146 -33.26138306 17.79220581 C-31.21736396 15.7117373 -29.17633416 13.62853245 -27.14477539 11.53588867 C-25.6437299 9.9923044 -24.13321162 8.45851014 -22.62109375 6.92578125 C-21.73349365 6.01610596 -20.84589355 5.10643066 -19.93139648 4.16918945 C-13.66738139 -1.33627697 -7.76032764 -2.83550433 0 0 Z " fill="#000000" transform="translate(247.25,234.1875)"/>
<path d="M0 0 C3.16418537 2.55827754 5.76681718 5.07623647 7 9 C7.5421778 15.72300467 6.54799775 19.94687011 2.07839966 25.30255127 C1.35401703 26.02932068 0.6296344 26.75609009 -0.11669922 27.50488281 C-0.94120575 28.33884583 -1.76571228 29.17280884 -2.61520386 30.03204346 C-3.50273346 30.91350037 -4.39026306 31.79495728 -5.3046875 32.703125 C-6.22081818 33.62212585 -7.13694885 34.54112671 -8.08084106 35.48797607 C-10.0143912 37.42593303 -11.95322189 39.35840085 -13.89599609 41.28710938 C-16.37989843 43.75389681 -18.85005512 46.23394271 -21.3164196 48.71825027 C-23.68022722 51.09552886 -26.05542603 53.46128644 -28.4296875 55.828125 C-29.75490921 57.16245575 -29.75490921 57.16245575 -31.10690308 58.52374268 C-31.93771393 59.34509705 -32.76852478 60.16645142 -33.62451172 61.01269531 C-34.35048553 61.73628235 -35.07645935 62.45986938 -35.82443237 63.2053833 C-39.82710651 66.50717257 -43.73554589 67.49654289 -48.92626953 67.29150391 C-57.72607869 66.05451637 -63.76858648 58.87902978 -69.69262695 52.88378906 C-71.31082751 51.25168685 -72.9516635 49.64508539 -74.59570312 48.0390625 C-85.78122421 36.94060408 -85.78122421 36.94060408 -86.1015625 28.2421875 C-85.00634394 22.80200353 -83.55025198 19.38716604 -78.98828125 16.0625 C-74.15641762 13.48044321 -70.39736295 13.60238803 -65.18359375 15.0859375 C-60.44112329 16.95441693 -57.42404917 20.00405317 -54 23.6875 C-53.41605469 24.29400391 -52.83210938 24.90050781 -52.23046875 25.52539062 C-50.80848349 27.00565397 -49.4025149 28.501276 -48 30 C-43.62538973 28.34233684 -40.89006192 25.05379352 -37.73046875 21.75 C-36.49978891 20.48915375 -35.26865483 19.22875076 -34.03710938 17.96875 C-32.10968634 15.98561259 -30.18641924 13.99887421 -28.27124023 12.00390625 C-26.41476189 10.07460143 -24.5427108 8.16153982 -22.66796875 6.25 C-21.82228584 5.35619629 -21.82228584 5.35619629 -20.95951843 4.44433594 C-14.77587419 -1.81653343 -8.31916306 -3.32454359 0 0 Z " fill="#000000" transform="translate(248,133)"/>
</svg>
