<?xml version="1.0" encoding="UTF-8"?>
<svg version="1.1" xmlns="http://www.w3.org/2000/svg" width="512" height="512">
<path d="M0 0 C4.89872999 2.85759249 7.79346527 7.1303958 9.5625 12.4375 C9.71236411 14.4281444 9.81078038 16.42285391 9.87890625 18.41796875 C9.92080078 19.58134766 9.96269531 20.74472656 10.00585938 21.94335938 C10.04517578 23.15830078 10.08449219 24.37324219 10.125 25.625 C10.16818359 26.85154297 10.21136719 28.07808594 10.25585938 29.34179688 C10.3620309 32.37358381 10.46407952 35.40545315 10.5625 38.4375 C11.27567383 38.53248779 11.98884766 38.62747559 12.72363281 38.7253418 C27.92464918 40.78101696 42.82566441 43.12473917 57.5625 47.4375 C58.31257324 47.65631836 59.06264648 47.87513672 59.83544922 48.10058594 C97.91559061 59.4660689 130.20250814 81.06422865 158.5625 108.4375 C159.37847656 109.21222656 160.19445312 109.98695312 161.03515625 110.78515625 C192.12990066 140.89080342 212.60504505 183.56467862 221.5625 225.4375 C221.87791748 226.89325439 221.87791748 226.89325439 222.19970703 228.37841797 C228.00617983 256.55567194 228.58901916 289.24928918 222.5625 317.4375 C222.35850586 318.42234375 222.15451172 319.4071875 221.94433594 320.421875 C208.57616442 383.62394354 208.57616442 383.62394354 189.5625 396.4375 C184.37690401 399.62601745 178.43354053 399.01098381 172.5625 398.4375 C166.33981594 396.51947479 162.42968471 391.63838808 159.25 386.1875 C156.98086259 377.11095034 159.36256326 370.58615785 163.5 362.5 C172.87846513 343.08089926 179.56081648 322.82449508 182.5625 301.4375 C182.73612061 300.20161133 182.90974121 298.96572266 183.08862305 297.69238281 C183.61230254 293.434669 183.75681119 289.22019298 183.80078125 284.93359375 C183.8105751 284.14133896 183.82036896 283.34908417 183.83045959 282.53282166 C184.00109888 265.14832024 183.87449311 248.39412157 179.5625 231.4375 C179.33755859 230.53418945 179.11261719 229.63087891 178.88085938 228.70019531 C170.65996992 196.39413798 155.27253411 167.11768435 132.5703125 142.65625 C131.16294262 141.10102414 129.81382061 139.49202488 128.51171875 137.84765625 C125.57769282 134.21981257 122.14413725 131.41226377 118.5625 128.4375 C118.03188965 127.9945459 117.5012793 127.5515918 116.95458984 127.09521484 C104.96482428 117.13320379 92.4955722 108.50368746 78.5625 101.4375 C77.97194824 101.13489258 77.38139648 100.83228516 76.77294922 100.52050781 C59.61447337 91.80908158 41.49123379 85.8726417 22.5625 82.4375 C21.65806152 82.26089844 20.75362305 82.08429688 19.82177734 81.90234375 C9.95001048 80.14931079 0.18158911 80.03939066 -9.8125 80.0625 C-10.69700836 80.06304382 -11.58151672 80.06358765 -12.49282837 80.06414795 C-26.48848777 80.10366987 -39.8250135 80.95395879 -53.4375 84.4375 C-54.79029053 84.77491211 -54.79029053 84.77491211 -56.17041016 85.11914062 C-88.47859627 93.33913121 -117.7558788 108.72613238 -142.21875 131.4296875 C-143.77397586 132.83705738 -145.38297512 134.18617939 -147.02734375 135.48828125 C-150.65518743 138.42230718 -153.46273623 141.85586275 -156.4375 145.4375 C-156.8804541 145.96811035 -157.3234082 146.4987207 -157.77978516 147.04541016 C-167.74179621 159.03517572 -176.37131254 171.5044278 -183.4375 185.4375 C-183.89141113 186.32332764 -183.89141113 186.32332764 -184.35449219 187.22705078 C-193.06591842 204.38552663 -199.0023583 222.50876621 -202.4375 241.4375 C-202.61410156 242.34193848 -202.79070312 243.24637695 -202.97265625 244.17822266 C-204.72568921 254.04998952 -204.83560934 263.81841089 -204.8125 273.8125 C-204.81195618 274.69700836 -204.81141235 275.58151672 -204.81085205 276.49282837 C-204.77133013 290.48848777 -203.92104121 303.8250135 -200.4375 317.4375 C-200.21255859 318.33936035 -199.98761719 319.2412207 -199.75585938 320.17041016 C-191.53586879 352.47859627 -176.14886762 381.7558788 -153.4453125 406.21875 C-152.03794262 407.77397586 -150.68882061 409.38297512 -149.38671875 411.02734375 C-146.45269282 414.65518743 -143.01913725 417.46273623 -139.4375 420.4375 C-138.90688965 420.8804541 -138.3762793 421.3234082 -137.82958984 421.77978516 C-125.83982428 431.74179621 -113.3705722 440.37131254 -99.4375 447.4375 C-98.84694824 447.74010742 -98.25639648 448.04271484 -97.64794922 448.35449219 C-80.49073501 457.06527788 -62.36593191 463.00598386 -43.4375 466.4375 C-42.52581055 466.61410156 -41.61412109 466.79070312 -40.67480469 466.97265625 C-31.00858185 468.67971547 -21.47220885 468.83587197 -11.6875 468.8125 C-10.83022308 468.81195618 -9.97294617 468.81141235 -9.08969116 468.81085205 C12.63933887 468.74767672 33.03197485 465.69258568 53.5625 458.4375 C54.38024902 458.14891113 55.19799805 457.86032227 56.04052734 457.56298828 C73.87310032 451.1293439 90.14504456 442.13282458 105.69140625 431.3359375 C111.31989697 427.6142416 117.0090869 427.85534401 123.5625 428.4375 C129.21323939 429.97021689 132.48030507 432.92595585 135.65234375 437.75390625 C137.52443432 441.21687206 137.78088344 444.25631407 137.875 448.125 C137.91238281 449.11886719 137.94976562 450.11273438 137.98828125 451.13671875 C137.25711017 456.80497164 135.04616668 461.48897735 130.62890625 465.203125 C129.47600988 466.05210791 128.30688424 466.87935913 127.125 467.6875 C126.47668213 468.14439209 125.82836426 468.60128418 125.16040039 469.07202148 C97.14983712 488.36629687 65.85507773 500.96259217 32.5625 507.4375 C31.76521484 507.60266113 30.96792969 507.76782227 30.14648438 507.93798828 C-26.40711635 519.30277047 -90.88307844 505.74339953 -138.74609375 473.9921875 C-160.18981021 459.31444195 -180.66444918 442.22281293 -196.4375 421.4375 C-196.8701416 420.87063477 -197.3027832 420.30376953 -197.74853516 419.71972656 C-219.55337251 391.02794688 -234.87744569 358.7255253 -242.4375 323.4375 C-242.64777832 322.47231445 -242.85805664 321.50712891 -243.07470703 320.51269531 C-249.38434007 290.088574 -249.08579939 255.76439857 -242.4375 225.4375 C-242.21787598 224.43541504 -241.99825195 223.43333008 -241.77197266 222.40087891 C-227.77703225 160.78550434 -189.58728887 107.50358848 -136.39208984 73.65332031 C-125.8228658 67.07890915 -114.83990508 61.41408927 -103.4375 56.4375 C-101.68759766 55.66792969 -101.68759766 55.66792969 -99.90234375 54.8828125 C-78.13645557 45.74066578 -54.84192491 40.92176857 -31.4375 38.4375 C-31.42348145 37.31891602 -31.42348145 37.31891602 -31.40917969 36.17773438 C-31.3551397 32.7636785 -31.27155696 29.35094345 -31.1875 25.9375 C-31.17332031 24.76445312 -31.15914062 23.59140625 -31.14453125 22.3828125 C-30.92544589 14.58337381 -30.3503415 8.40082978 -24.62109375 2.59765625 C-24.04488281 2.23542969 -23.46867188 1.87320312 -22.875 1.5 C-22.29621094 1.11972656 -21.71742188 0.73945312 -21.12109375 0.34765625 C-14.98998289 -2.96684219 -6.30251123 -2.81448021 0 0 Z " fill="#000000" transform="translate(266.4375,1.5625)"/>
<path d="M0 0 C5.31826042 3.13539234 9.20073427 7.31783309 11.59375 13.046875 C11.9296875 15.78125 11.9296875 15.78125 11.96875 18.796875 C11.99710938 19.78171875 12.02546875 20.7665625 12.0546875 21.78125 C11.02622997 29.06761015 6.85599199 34.35776856 2.03125 39.671875 C0.9520297 40.89502431 -0.12473668 42.12034253 -1.19921875 43.34765625 C-1.73853027 43.96334473 -2.2778418 44.5790332 -2.83349609 45.21337891 C-5.24363254 48.0230847 -7.51633715 50.93221676 -9.78125 53.859375 C-13.9621525 59.2484004 -18.24669546 64.54093809 -22.59375 69.796875 C-26.86148935 74.95712036 -31.10273153 80.13260555 -35.26953125 85.375 C-38.76635013 89.74762177 -42.30557282 94.08580855 -45.84008789 98.42797852 C-46.89234046 99.72103718 -47.94001635 101.0178377 -48.98242188 102.31884766 C-50.21494177 103.81469399 -51.53072971 105.24118705 -52.859375 106.65234375 C-54.69659256 108.96289522 -54.69659256 108.96289522 -54.1796875 111.8203125 C-53.92445313 112.88507813 -53.66921875 113.94984375 -53.40625 115.046875 C-52.20000797 128.3419033 -53.75988156 138.82278369 -61.65625 149.921875 C-65.33474274 154.31540953 -69.39757052 157.30957342 -74.40625 160.046875 C-75.12039063 160.46066406 -75.83453125 160.87445313 -76.5703125 161.30078125 C-85.38863152 165.64933376 -96.51882905 165.52691631 -105.91796875 163.1640625 C-116.35568784 159.12796626 -124.04253076 152.86133999 -129.40625 143.046875 C-129.82003906 142.33273437 -130.23382813 141.61859375 -130.66015625 140.8828125 C-135.00870876 132.06449348 -134.88629131 120.93429595 -132.5234375 111.53515625 C-127.71379352 99.096971 -119.73846212 91.28664597 -107.78125 85.734375 C-103.36510889 83.98989624 -99.6881721 84.02330651 -94.96875 84.109375 C-90.25414746 83.90089006 -88.08202018 83.59588364 -84.38671875 80.59375 C-81.93216074 77.85989212 -79.79599893 74.91141776 -77.70361328 71.89501953 C-75.62343273 68.93172131 -73.34791812 66.12845946 -71.09375 63.296875 C-70.18053446 62.12535463 -69.26778525 60.95347062 -68.35546875 59.78125 C-65.11071965 55.64372472 -61.76084246 51.59547406 -58.40625 47.546875 C-54.169748 42.43217846 -49.98538364 37.28801254 -45.90625 32.046875 C-40.04223042 24.51245165 -33.95959634 17.16110735 -27.85791016 9.81860352 C-26.61440729 8.30092772 -25.41040552 6.75103459 -24.21484375 5.1953125 C-18.40536493 -1.70579625 -8.25726883 -3.27073636 0 0 Z " fill="#000000" transform="translate(349.40625,151.953125)"/>
<path d="M0 0 C2.57770769 2.09569731 4.99511758 4.30095467 7.41015625 6.58203125 C9.96424788 8.96662057 12.59566026 11.17865786 15.3125 13.375 C19.41973706 16.70018205 23.47479373 20.07667711 27.5 23.5 C31.49147434 26.89134526 35.50386688 30.25135615 39.5625 33.5625 C40.44164062 34.28308594 41.32078125 35.00367188 42.2265625 35.74609375 C44.21059692 37.35847102 46.20385651 38.95216559 48.2109375 40.53515625 C59.01036923 49.13058922 59.01036923 49.13058922 61 55 C61.69489027 61.6642489 62.22416015 68.45578981 58 74 C52.59811242 79.39063364 48.99895441 82.13209125 41.1875 82.25 C40.17042969 82.27578125 39.15335937 82.3015625 38.10546875 82.328125 C31.73958404 81.65550322 27.46780076 77.97826632 22.8125 73.875 C21.66343593 72.88203025 20.51368598 71.88985371 19.36328125 70.8984375 C18.5117749 70.16125488 18.5117749 70.16125488 17.64306641 69.40917969 C15.29649509 67.39663739 12.90079198 65.44734811 10.5 63.5 C5.89751534 59.75379155 1.36277589 55.93477213 -3.1574707 52.09033203 C-6.63243023 49.14041096 -10.14453073 46.24335594 -13.6875 43.375 C-33.08854986 27.51946364 -33.08854986 27.51946364 -34 20 C-34.42810592 14.43462299 -33.84935674 9.8118276 -31 5 C-22.14855416 -4.77107658 -11.43520532 -7.19779421 0 0 Z " fill="#000000" transform="translate(418,17)"/>
<path d="M0 0 C5.07526059 3.64350286 8.56876734 8.15586446 9.85546875 14.33203125 C10.46835755 20.95123031 9.2835691 26.40264567 5.0390625 31.5234375 C0.29904085 36.39913061 -4.8913391 40.70028224 -10.19140625 44.94921875 C-13.3866516 47.52739291 -16.51901642 50.17027275 -19.64453125 52.83203125 C-24.48666514 56.94770289 -29.38039155 60.99221056 -34.3125 65 C-36.3948233 66.71468553 -38.45758952 68.44304982 -40.5078125 70.1953125 C-41.08144531 70.68515625 -41.65507813 71.175 -42.24609375 71.6796875 C-43.35142501 72.62603275 -44.45446052 73.57506905 -45.5546875 74.52734375 C-53.08003564 80.96949784 -58.25623704 83.7245107 -68.13671875 83.60546875 C-74.13421544 83.06024178 -77.55537639 80.18245836 -81.51953125 75.76953125 C-85.62945065 70.83543016 -85.62400254 65.91717712 -85.52734375 59.67578125 C-84.29653081 48.92500703 -74.02444294 42.6265937 -66.14453125 36.33203125 C-64.30973296 34.83382354 -62.47631019 33.33392906 -60.64453125 31.83203125 C-59.75765625 31.11015625 -58.87078125 30.38828125 -57.95703125 29.64453125 C-54.82653181 27.07056504 -51.73290906 24.45622311 -48.64453125 21.83203125 C-43.7309858 17.65960681 -38.78544281 13.53169864 -33.77734375 9.47265625 C-31.98913625 8.01874274 -30.21341976 6.54935782 -28.44921875 5.06640625 C-27.15371094 3.99132812 -27.15371094 3.99132812 -25.83203125 2.89453125 C-25.07277344 2.25644531 -24.31351563 1.61835938 -23.53125 0.9609375 C-16.2513044 -4.00753601 -7.59808343 -4.29193136 0 0 Z " fill="#000000" transform="translate(118.14453125,15.66796875)"/>
</svg>
